<svg width="57" height="23" viewBox="0 0 57 23" fill="none" xmlns="http://www.w3.org/2000/svg">
<path d="M11.344 4.608V19.424H13.36V4.608H11.344ZM6.464 9.664V11.392H8.912V9.664H6.464ZM8.352 4.848V18.752H10.336V4.848H8.352ZM3.264 7.024V8.544C3.264 11.072 2.512 13.728 0.336 15.088L1.6 16.656C3.952 15.184 4.864 11.872 4.864 8.544V7.024H3.264ZM3.744 7.024V8.544C3.744 11.808 4.608 14.912 6.96 16.304L8.208 14.752C6.064 13.504 5.328 11.008 5.328 8.544V7.024H3.744ZM0.896 6.096V7.808H7.504V6.096H0.896ZM20.9908 12.144V14.288H23.1188V12.144H20.9908ZM15.3908 10.896V12.448H28.7348V10.896H15.3908ZM20.9908 4.592V6.384H23.1028V4.592H20.9908ZM20.8628 6.48V6.768C20.8628 7.792 19.5028 8.8 15.8868 8.944L16.4788 10.528C20.5748 10.304 22.7348 8.896 22.7348 6.768V6.48H20.8628ZM21.3588 6.48V6.768C21.3588 8.896 23.5188 10.304 27.5988 10.528L28.1908 8.944C24.5908 8.8 23.2308 7.792 23.2308 6.768V6.48H21.3588ZM16.6388 5.76V7.312H27.4708V5.76H16.6388ZM16.8948 13.344V14.88H25.0388V15.584H16.9108V18.416H19.0068V17.008H27.1348V13.344H16.8948ZM16.9108 17.776V19.328H27.5188V17.776H16.9108Z" fill="white"/>
<path d="M44.625 6.375C45.2473 6.375 45.75 5.87227 45.75 5.25C45.75 4.62773 45.2473 4.125 44.625 4.125H42.375C40.5117 4.125 39 5.63672 39 7.5V16.5C39 18.3633 40.5117 19.875 42.375 19.875H44.625C45.2473 19.875 45.75 19.3723 45.75 18.75C45.75 18.1277 45.2473 17.625 44.625 17.625H42.375C41.7527 17.625 41.25 17.1223 41.25 16.5V7.5C41.25 6.87773 41.7527 6.375 42.375 6.375H44.625ZM56.7363 12.6117C56.9051 12.4535 57 12.232 57 12C57 11.768 56.9051 11.5465 56.7363 11.3883L51.6738 6.60703C51.4277 6.375 51.0691 6.31172 50.7598 6.44531C50.4504 6.57891 50.25 6.88477 50.25 7.21875V9.75H45.75C45.1277 9.75 44.625 10.2527 44.625 10.875V13.125C44.625 13.7473 45.1277 14.25 45.75 14.25H50.25V16.7812C50.25 17.1187 50.4504 17.4211 50.7598 17.5547C51.0691 17.6883 51.4277 17.625 51.6738 17.393L56.7363 12.6117Z" fill="white"/>
</svg>
