<svg width="19" height="23" viewBox="0 0 19 23" fill="none" xmlns="http://www.w3.org/2000/svg">
<g clip-path="url(#clip0_425_26)">
<path d="M14.7499 1.9748C15.0112 1.36813 14.8166 0.66013 14.2806 0.270798C13.7446 -0.118536 13.0139 -0.0838699 12.5139 0.349464L1.18189 10.2668C0.739223 10.6561 0.579223 11.2801 0.787223 11.8295C0.995223 12.3775 1.52722 12.7495 2.11522 12.7495H7.05122L3.64722 20.6921C3.38589 21.2988 3.58056 22.0068 4.11656 22.3961C4.65256 22.7855 5.38189 22.7508 5.88322 22.3161L17.2152 12.4001C17.6579 12.0108 17.8179 11.3868 17.6099 10.8375C17.4019 10.2881 16.8752 9.92146 16.2819 9.92146H11.3459L14.7499 1.9748Z" fill="black"/>
</g>
<defs>
<clipPath id="clip0_425_26">
<rect width="18.6667" height="22.6667" fill="white"/>
</clipPath>
</defs>
</svg>
