<svg width="18" height="18" viewBox="0 0 18 18" fill="none" xmlns="http://www.w3.org/2000/svg">
<path d="M5.625 3.375C6.24727 3.375 6.75 2.87227 6.75 2.25C6.75 1.62773 6.24727 1.125 5.625 1.125H3.375C1.51172 1.125 0 2.63672 0 4.5V13.5C0 15.3633 1.51172 16.875 3.375 16.875H5.625C6.24727 16.875 6.75 16.3723 6.75 15.75C6.75 15.1277 6.24727 14.625 5.625 14.625H3.375C2.75273 14.625 2.25 14.1223 2.25 13.5V4.5C2.25 3.87773 2.75273 3.375 3.375 3.375H5.625ZM17.7363 9.61172C17.9051 9.45352 18 9.23203 18 9C18 8.76797 17.9051 8.54648 17.7363 8.38828L12.6738 3.60703C12.4277 3.375 12.0691 3.31172 11.7598 3.44531C11.4504 3.57891 11.25 3.88477 11.25 4.21875V6.75H6.75C6.12773 6.75 5.625 7.25273 5.625 7.875V10.125C5.625 10.7473 6.12773 11.25 6.75 11.25H11.25V13.7812C11.25 14.1187 11.4504 14.4211 11.7598 14.5547C12.0691 14.6883 12.4277 14.625 12.6738 14.393L17.7363 9.61172Z" fill="black"/>
</svg>
