<?xml version="1.0" encoding="UTF-8" standalone="no"?>
<!-- Created with Inkscape (http://www.inkscape.org/) -->

<svg
   version="1.1"
   id="svg2"
   xml:space="preserve"
   width="18.666668"
   height="22.666668"
   viewBox="0 0 18.666668 22.666668"
   sodipodi:docname="header_logo.ai"
   xmlns:inkscape="http://www.inkscape.org/namespaces/inkscape"
   xmlns:sodipodi="http://sodipodi.sourceforge.net/DTD/sodipodi-0.dtd"
   xmlns="http://www.w3.org/2000/svg"
   xmlns:svg="http://www.w3.org/2000/svg"><defs
     id="defs6"><clipPath
       clipPathUnits="userSpaceOnUse"
       id="clipPath16"><path
         d="M 0,17 H 14 V 0 H 0 Z"
         id="path14" /></clipPath></defs><sodipodi:namedview
     id="namedview4"
     pagecolor="#ffffff"
     bordercolor="#666666"
     borderopacity="1.0"
     inkscape:pageshadow="2"
     inkscape:pageopacity="0.0"
     inkscape:pagecheckerboard="0" /><g
     id="g8"
     inkscape:groupmode="layer"
     inkscape:label="header_logo"
     transform="matrix(1.3333333,0,0,-1.3333333,0,22.666667)"><g
       id="g10"><g
         id="g12"
         clip-path="url(#clipPath16)"><g
           id="g18"
           transform="translate(11.0625,15.5189)"><path
             d="M 0,0 C 0.196,0.455 0.05,0.986 -0.352,1.278 -0.754,1.57 -1.302,1.544 -1.677,1.219 l -8.499,-7.438 c -0.332,-0.292 -0.452,-0.76 -0.296,-1.172 0.156,-0.411 0.555,-0.69 0.996,-0.69 h 3.702 l -2.553,-5.957 c -0.196,-0.455 -0.05,-0.986 0.352,-1.278 0.402,-0.292 0.949,-0.266 1.325,0.06 l 8.499,7.437 c 0.332,0.292 0.452,0.76 0.296,1.172 -0.156,0.412 -0.551,0.687 -0.996,0.687 h -3.702 z"
             style="fill:#ffffff;fill-opacity:1;fill-rule:nonzero;stroke:none"
             id="path20" /></g></g></g></g></svg>
